<svg xmlns="http://www.w3.org/2000/svg" width="14.589" height="14.511" viewBox="0 0 14.589 14.511">
  <g id="edit" transform="translate(0 -0.269)">
    <path id="Path_3356" data-name="Path 3356" d="M14.17,27.266a.382.382,0,0,0-.382.382v3.4a1.148,1.148,0,0,1-1.147,1.147H1.912A1.148,1.148,0,0,1,.765,31.044V21.08a1.148,1.148,0,0,1,1.147-1.147h3.4a.382.382,0,0,0,0-.765h-3.4A1.914,1.914,0,0,0,0,21.08v9.964a1.914,1.914,0,0,0,1.912,1.912H12.641a1.914,1.914,0,0,0,1.912-1.912v-3.4A.382.382,0,0,0,14.17,27.266Zm0,0" transform="translate(0 -18.177)" fill="#003165"/>
    <path id="Path_3357" data-name="Path 3357" d="M156.367,37.911l5.583-5.583,1.8,1.8-5.583,5.583Zm0,0" transform="translate(-150.388 -30.834)" fill="#003165"/>
    <path id="Path_3358" data-name="Path 3358" d="M132.543,199.209l1.99-.551-1.439-1.439Zm0,0" transform="translate(-127.475 -189.42)" fill="#003165"/>
    <path id="Path_3359" data-name="Path 3359" d="M318.284.548a.957.957,0,0,0-1.352,0l-.406.406,1.8,1.8.406-.406a.957.957,0,0,0,0-1.352Zm0,0" transform="translate(-304.424)" fill="#003165"/>
  </g>
</svg>
